<svg width="64" height="64" viewBox="0 0 64 64" fill="none" xmlns="http://www.w3.org/2000/svg">
<rect width="64" height="64" rx="2.875" fill="#FB8351" fill-opacity="0.1"/>
<path fill-rule="evenodd" clip-rule="evenodd" d="M29.7652 47.3334H34.2347C35.1426 47.3334 35.9337 47.9813 35.8576 48.8859C35.7378 50.3107 35.0658 52.3023 32.3752 52.9976C32.1302 53.0609 31.8697 53.0609 31.6247 52.9976C28.9342 52.3023 28.2621 50.3108 28.1423 48.886C28.0662 47.9813 28.8573 47.3334 29.7652 47.3334Z" fill="#2666CF"/>
<path fill-rule="evenodd" clip-rule="evenodd" d="M22.4168 24.3333C23.854 20.0221 28.5234 15.1721 30.7703 13.0149C31.4629 12.3499 32.5373 12.3499 33.2299 13.0149C35.4768 15.1721 40.1463 20.0221 41.5834 24.3333C42.2781 26.4175 42.2503 29.2796 41.886 32.223C41.8948 32.1517 41.9035 32.0804 41.9119 32.0092C44.9347 32.1794 47.3334 34.6846 47.3334 37.75V45.6686C47.3334 47.1995 45.6273 48.1126 44.3536 47.2634L38.8067 43.5655C37.7846 44.7269 36.2689 45.4166 34.6338 45.4166H29.3498C27.6772 45.4166 26.1289 44.6947 25.1079 43.4833C25.133 43.513 25.1584 43.5425 25.1841 43.5717L19.6466 47.2634C18.3729 48.1126 16.6667 47.1995 16.6667 45.6686V37.75C16.6667 34.6906 19.056 32.1893 22.0704 32.0102C21.7361 29.1545 21.7327 26.3852 22.4168 24.3333ZM37.9468 25.5455C38.3918 26.8806 38.4325 29.2383 38.0114 32.2884C37.6106 35.1918 36.8731 38.1915 36.2243 40.4884C36.0595 41.0718 35.4809 41.5833 34.6338 41.5833H29.3498C28.5049 41.5833 27.9309 41.0751 27.7666 40.4987C27.1153 38.2139 26.3756 35.2274 25.9753 32.328C25.5556 29.2878 25.5968 26.9152 26.0533 25.5456C26.5538 24.0443 27.7373 22.1803 29.2753 20.2709C30.1913 19.1336 31.151 18.0799 32.0001 17.201C32.8493 18.0799 33.8089 19.1336 34.725 20.2709C36.2629 22.1803 37.4464 24.0442 37.9468 25.5455ZM22.6755 35.7865C22.6786 35.8021 22.6817 35.8177 22.6848 35.8333H22.4167C21.3582 35.8333 20.5001 36.6914 20.5001 37.75V42.0873L23.6512 39.9865C23.3126 38.7022 22.9698 37.2711 22.6755 35.7865ZM40.3337 39.9861L40.3358 39.9778L43.5001 42.0873V37.75C43.5001 36.6914 42.642 35.8333 41.5834 35.8333H41.2955C41.004 37.3003 40.6665 38.7148 40.3337 39.9861Z" fill="#2666CF"/>
<circle cx="32.0001" cy="28.1667" r="3.83333" fill="#2666CF"/>
</svg>
