<svg width="50" height="50" viewBox="0 0 50 50" fill="none" xmlns="http://www.w3.org/2000/svg">
<circle cx="25" cy="25" r="25" fill="#2666CF"/>
<path d="M33.8125 16.1375C32.6665 14.9799 31.3015 14.062 29.797 13.4375C28.2926 12.813 26.6789 12.4943 25.05 12.5C18.225 12.5 12.6625 18.0625 12.6625 24.8875C12.6625 27.075 13.2375 29.2 14.3125 31.075L12.5625 37.5L19.125 35.775C20.9375 36.7625 22.975 37.2875 25.05 37.2875C31.875 37.2875 37.4375 31.725 37.4375 24.9C37.4375 21.5875 36.15 18.475 33.8125 16.1375ZM25.05 35.1875C23.2 35.1875 21.3875 34.6875 19.8 33.75L19.425 33.525L15.525 34.55L16.5625 30.75L16.3125 30.3625C15.2847 28.7212 14.7389 26.824 14.7375 24.8875C14.7375 19.2125 19.3625 14.5875 25.0375 14.5875C27.7875 14.5875 30.375 15.6625 32.3125 17.6125C33.2719 18.5674 34.0321 19.7033 34.5492 20.9542C35.0664 22.2052 35.33 23.5463 35.325 24.9C35.35 30.575 30.725 35.1875 25.05 35.1875ZM30.7 27.4875C30.3875 27.3375 28.8625 26.5875 28.5875 26.475C28.3 26.375 28.1 26.325 27.8875 26.625C27.675 26.9375 27.0875 27.6375 26.9125 27.8375C26.7375 28.05 26.55 28.075 26.2375 27.9125C25.925 27.7625 24.925 27.425 23.75 26.375C22.825 25.55 22.2125 24.5375 22.025 24.225C21.85 23.9125 22 23.75 22.1625 23.5875C22.3 23.45 22.475 23.225 22.625 23.05C22.775 22.875 22.8375 22.7375 22.9375 22.5375C23.0375 22.325 22.9875 22.15 22.9125 22C22.8375 21.85 22.2125 20.325 21.9625 19.7C21.7125 19.1 21.45 19.175 21.2625 19.1625H20.6625C20.45 19.1625 20.125 19.2375 19.8375 19.55C19.5625 19.8625 18.7625 20.6125 18.7625 22.1375C18.7625 23.6625 19.875 25.1375 20.025 25.3375C20.175 25.55 22.2125 28.675 25.3125 30.0125C26.05 30.3375 26.625 30.525 27.075 30.6625C27.8125 30.9 28.4875 30.8625 29.025 30.7875C29.625 30.7 30.8625 30.0375 31.1125 29.3125C31.375 28.5875 31.375 27.975 31.2875 27.8375C31.2 27.7 31.0125 27.6375 30.7 27.4875Z" fill="white"/>
</svg>
