<svg width="50" height="50" viewBox="0 0 50 50" fill="none" xmlns="http://www.w3.org/2000/svg">
<circle cx="25" cy="25" r="25" fill="#2666CF"/>
<path d="M15 35C14.3125 35 13.7242 34.7554 13.235 34.2663C12.745 33.7763 12.5 33.1875 12.5 32.5V17.5C12.5 16.8125 12.745 16.2242 13.235 15.735C13.7242 15.245 14.3125 15 15 15H35C35.6875 15 36.2763 15.245 36.7663 15.735C37.2554 16.2242 37.5 16.8125 37.5 17.5V32.5C37.5 33.1875 37.2554 33.7763 36.7663 34.2663C36.2763 34.7554 35.6875 35 35 35H15ZM25 26.25L15 20V32.5H35V20L25 26.25ZM25 23.75L35 17.5H15L25 23.75ZM15 20V17.5V32.5V20Z" fill="white"/>
</svg>
